<svg width="602" height="771" viewBox="0 0 602 771" fill="none" xmlns="http://www.w3.org/2000/svg">
<g clip-path="url(#clip0_33_18)">
<path fill-rule="evenodd" clip-rule="evenodd" d="M189.836 205.723C199.892 262.754 204.355 322.631 202.233 364.826C185.75 371.597 170.429 380.205 156.555 390.379C137.774 352.643 117.965 286.036 106.398 220.435C88.5219 119.056 97.0976 58.4678 120.138 54.4051C143.179 50.3424 171.96 104.343 189.836 205.723ZM399.006 265.267C411.583 287.05 424.144 306.54 436.499 323.722C429.511 346.44 422.027 366.801 414.612 382.996L413.698 384.952C398.841 374.692 382.544 366.279 365.2 360.033L365.184 359.509C363.812 321.617 367.378 271.022 375.231 221.18C382.715 236.054 390.673 250.834 399.006 265.267Z" fill="#EFEFEF"/>
<path fill-rule="evenodd" clip-rule="evenodd" d="M266.871 610.022H300.761C326.179 610.022 303.282 635.439 283.816 635.439C264.35 635.439 241.454 610.022 266.871 610.022Z" fill="#EFEFEF"/>
<path fill-rule="evenodd" clip-rule="evenodd" d="M41.5426 495.902C41.5426 495.902 129.888 461.808 254.602 504.183H313.057C437.771 461.808 526.117 495.902 526.117 495.902C526.117 495.902 567.659 493.731 567.659 516.421C567.659 539.688 546.765 530.534 537.758 555.241C528.751 579.949 537.758 660.857 420.211 660.857C316.59 660.857 304.674 546.078 292.576 546.078H275.084C262.985 546.078 251.069 660.857 147.448 660.857C29.9018 660.857 38.9088 579.949 29.9018 555.241C20.8948 530.534 2.73569e-06 539.688 0 516.421C-1.5839e-06 493.731 41.5426 495.902 41.5426 495.902ZM221.884 514.604L133.371 638.511C135.365 638.581 137.402 638.617 139.485 638.617L141.784 638.592L228.688 516.93C226.553 516.121 224.282 515.345 221.884 514.604ZM506.878 518.9L421.457 638.49C423.65 638.574 425.889 638.617 428.175 638.617L429.852 638.609L513.075 522.085C511.224 520.984 509.153 519.921 506.878 518.9ZM192.51 508.259L102.697 634.011C109.42 635.915 116.909 637.289 125.249 638.018L214.827 512.618C208.098 510.896 200.603 509.427 192.51 508.259ZM478.981 510.508L390.714 634.07C397.595 635.909 405.117 637.247 413.339 637.978L500.293 516.267C494.148 514.067 486.972 512.126 478.981 510.508Z" fill="#EFEFEF"/>
<path fill-rule="evenodd" clip-rule="evenodd" d="M170.753 48.9775C193.196 82.6558 213.581 137.659 227.171 211.964C231.441 235.373 234.763 259.19 237.118 282.616C239.279 304.069 240.617 325.207 241.159 345.414C247.302 344.169 253.563 343.161 259.918 342.398C268.882 341.331 278.032 340.763 287.352 340.721C295.231 340.678 303.017 341.085 310.685 341.898C315.472 342.407 320.217 343.076 324.91 343.906C325.292 323.945 326.452 303.094 328.384 281.938C330.519 258.63 333.612 234.95 337.628 211.659L344.439 176.896C344.99 174.43 346.668 172.372 348.972 171.346C348.972 171.346 350.217 170.784 352.48 169.841C354.481 166.987 357.524 164.172 361.562 161.544C375.059 152.741 400.282 144.921 426.233 140.362C451.854 135.863 478.153 134.609 494.547 138.287C503.308 140.244 509.51 143.87 512.679 148.479C516.762 154.656 520.778 160.9 524.709 167.186C528.649 173.482 532.496 179.827 536.257 186.207C574.74 251.624 595.303 306.881 600.318 347.236C605.055 385.32 595.582 410.966 576.722 421.998C557.761 432.944 530.683 428.471 499.936 405.383C489.928 397.873 479.438 388.395 468.653 376.937C463.36 392.046 457.806 406.39 452.091 419.685C460.682 430.97 468.028 443.188 473.934 456.167C480.152 469.825 484.77 484.322 487.557 499.479L487.607 499.537L470.254 497.611C467.637 485.592 463.75 474.05 458.734 463.106C452.667 449.847 444.94 437.477 435.832 426.191C433.867 423.751 433.426 420.405 434.689 417.532C442.041 400.777 449.129 382.191 455.74 362.413C453.889 360.232 452.031 357.982 450.168 355.675C431.435 332.485 412.16 303.518 392.868 268.992C384.887 254.564 377.254 239.83 370.128 224.986C365.498 215.335 361.08 205.645 356.881 195.987L353.158 214.395C349.04 237.254 345.846 260.503 343.575 283.387C341.211 307.246 339.839 330.706 339.5 352.913C339.474 355.132 338.449 357.225 336.704 358.598C334.959 359.979 332.697 360.487 330.528 360.004C323.512 358.386 316.362 357.149 309.092 356.31C301.95 355.488 294.697 355.039 287.352 355.005C278.582 354.963 269.958 355.42 261.519 356.344C252.826 357.301 244.32 358.759 236.042 360.682C234 361.165 231.848 360.699 230.196 359.411C228.544 358.115 227.57 356.141 227.553 354.048C227.451 331.655 226.315 307.957 224.172 283.845C222.113 260.723 219.122 237.203 215.182 214.082C205.168 155.13 190.705 108.497 174.142 75.2763C163.805 54.5525 152.732 39.1242 141.344 29.3638C130.669 20.2135 119.867 16.1381 109.344 17.9173C98.8295 19.8067 90.0263 27.305 83.0619 39.5478C75.6485 52.604 70.4294 70.9044 67.7267 93.9327C63.3972 130.839 65.6255 179.675 76.2077 238.584C81.7996 269.704 89.2385 300.908 97.872 330.418C107.344 362.775 118.265 393.081 129.78 418.981C130.678 421.015 130.356 423.379 128.949 425.098C119.621 436.579 111.784 449.161 105.658 462.615C99.6259 475.883 95.2708 490.007 92.8053 504.774C92.6189 505.893 92.1275 506.935 91.3904 507.79C80.41 520.559 71.768 534.538 65.8542 549.45C59.9065 564.463 56.7548 580.425 56.8051 597.023C56.9158 636.361 78.0886 672.666 112.978 700.574C155.231 734.371 217.512 755.815 288.046 755.63C342.414 755.493 392.868 740.395 431.859 715.782C474.195 689.052 503.046 651.092 507.567 608.888L523.87 584.662C524.217 588.744 524.389 592.866 524.38 597.023C524.294 639.657 502.401 679.376 466.156 710.03C422.649 746.826 358.411 770.583 288.046 770.406C213.886 770.21 148.589 747.063 104.362 711.283C66.2356 680.435 43.6649 640.208 43.7914 597.023C43.8428 578.756 47.418 561.21 54.069 544.731C60.3725 529.099 69.4467 514.408 80.9185 500.97C83.6974 485.779 88.3487 471.24 94.6693 457.574C100.803 444.323 108.497 431.877 117.554 420.439C106.539 394.775 96.135 365.105 87.1118 333.528C78.5545 303.603 71.2259 271.966 65.7696 240.423C52.9083 166.076 53.0948 107.48 62.5247 68.1679C71.0226 32.7358 87.3405 12.6136 107.785 9.08051C128.22 5.32718 150.52 18.612 170.753 48.9775ZM427.979 150.928C403.442 154.723 379.465 161.383 366.578 169.415C362.376 172.024 359.241 174.388 358.707 177.167C365.316 191.384 372.492 205.711 380.058 219.97C387.666 234.323 395.681 248.599 404.069 262.528C414.736 280.345 425.42 296.545 435.867 311.236C455.345 338.636 474.221 360.538 491.887 376.856C508.484 392.183 523.854 402.519 537.579 407.56C549.525 411.949 559.964 412.28 568.334 407.476C576.748 402.672 581.823 393.496 584.068 380.931C586.643 366.494 585.449 347.956 580.467 325.86C572.333 289.784 554.185 244.651 524.828 192.807C521.236 186.461 517.558 180.141 513.797 173.863C510.043 167.593 506.205 161.357 502.367 155.283C499.8 151.394 493.022 149.758 484.287 148.623C469.079 146.649 448.33 147.776 427.979 150.928Z" fill="#EFEFEF"/>
<path fill-rule="evenodd" clip-rule="evenodd" d="M281.048 631.693C281.048 631.693 280.302 632.828 279.574 635.082C279.37 635.709 279.218 636.37 279.125 637.115C279.065 637.556 279.04 638.013 279.065 638.471C279.133 639.843 279.404 641.216 279.65 642.538C280.285 645.969 281.048 648.638 281.048 648.638C281.048 649.875 282.056 650.883 283.293 650.883C284.53 650.883 285.538 649.875 285.538 648.638C285.538 648.638 286.292 645.969 286.928 642.538C287.174 641.216 287.445 639.843 287.513 638.471C287.538 638.013 287.521 637.556 287.462 637.115C287.36 636.37 287.216 635.709 287.013 635.082C286.276 632.828 285.538 631.693 285.538 631.693C285.538 630.456 284.53 629.447 283.293 629.447C282.056 629.447 281.048 630.456 281.048 631.693Z" fill="#EFEFEF"/>
<path fill-rule="evenodd" clip-rule="evenodd" d="M340.72 647.418C340.72 647.418 337.958 650.468 333.374 653.662C331.782 654.772 329.968 655.831 327.96 656.839C325.834 657.915 323.47 658.796 320.886 659.431C318.615 659.999 316.175 660.397 313.532 660.355C309.067 660.287 304.093 659.211 298.561 656.424C294.299 654.272 289.724 651.273 284.861 647.036C283.979 646.172 282.556 646.18 281.692 647.07C280.819 647.951 280.836 649.375 281.718 650.239C288.868 658.076 295.655 662.871 301.924 665.591C305.856 667.302 309.609 668.15 313.134 668.438C316.65 668.717 319.954 668.421 322.962 667.641C326.3 666.777 329.299 665.362 331.883 663.693C334.171 662.21 336.153 660.567 337.797 658.889C342.355 654.238 344.482 649.857 344.482 649.857C345.16 648.824 344.863 647.426 343.821 646.757C342.779 646.079 341.389 646.375 340.72 647.418Z" fill="#EFEFEF"/>
<path fill-rule="evenodd" clip-rule="evenodd" d="M222.105 649.857C222.105 649.857 224.231 654.238 228.79 658.889C230.425 660.567 232.407 662.21 234.695 663.693C237.287 665.362 240.278 666.777 243.617 667.641C246.633 668.421 249.937 668.717 253.453 668.438C256.969 668.15 260.723 667.302 264.654 665.591C270.932 662.871 277.718 658.076 284.861 650.239C285.75 649.375 285.759 647.951 284.895 647.07C284.031 646.18 282.607 646.172 281.718 647.036C276.863 651.273 272.287 654.272 268.026 656.424C262.493 659.211 257.511 660.287 253.055 660.355C250.403 660.397 247.971 659.999 245.701 659.431C243.117 658.796 240.744 657.915 238.626 656.839C236.618 655.831 234.797 654.772 233.212 653.662C228.62 650.468 225.867 647.418 225.867 647.418C225.189 646.375 223.799 646.079 222.766 646.757C221.724 647.426 221.427 648.824 222.105 649.857Z" fill="#EFEFEF"/>
</g>
<defs>
<clipPath id="clip0_33_18">
<rect width="601.549" height="771" fill="white"/>
</clipPath>
</defs>
</svg>
