<svg width="256" height="256" viewBox="0 0 256 256" fill="none" xmlns="http://www.w3.org/2000/svg">
<rect width="256" height="256" fill="#1F1F1F"/>
<g clip-path="url(#clip0_47_32)">
<path fill-rule="evenodd" clip-rule="evenodd" d="M99.4695 79.643C102.229 95.2937 103.454 111.725 102.872 123.304C98.3482 125.162 94.144 127.525 90.3366 130.316C85.1825 119.961 79.7466 101.683 76.5723 83.6804C71.6668 55.8597 74.0202 39.2331 80.343 38.1182C86.6659 37.0033 94.564 51.8223 99.4695 79.643ZM156.87 95.9833C160.322 101.961 163.769 107.309 167.159 112.025C165.242 118.259 163.188 123.846 161.153 128.291L160.902 128.827C156.825 126.012 152.353 123.703 147.593 121.989L147.589 121.845C147.212 111.447 148.191 97.5626 150.346 83.8847C152.4 87.9664 154.584 92.0224 156.87 95.9833Z" fill="#F1F1F1"/>
<path fill-rule="evenodd" clip-rule="evenodd" d="M120.61 190.587H129.91C136.885 190.587 130.601 197.563 125.26 197.563C119.918 197.563 113.634 190.587 120.61 190.587Z" fill="#F1F1F1"/>
<path fill-rule="evenodd" clip-rule="evenodd" d="M58.7752 159.274C58.7752 159.274 83.0191 149.917 117.243 161.546H133.285C167.509 149.917 191.753 159.274 191.753 159.274C191.753 159.274 203.153 158.678 203.153 164.904C203.153 171.289 197.419 168.777 194.947 175.558C192.475 182.338 194.947 204.541 162.69 204.541C134.254 204.541 130.984 173.043 127.664 173.043H122.864C119.544 173.043 116.274 204.541 87.8379 204.541C55.5807 204.541 58.0524 182.338 55.5807 175.558C53.109 168.777 47.375 171.289 47.375 164.904C47.375 158.678 58.7752 159.274 58.7752 159.274ZM108.265 164.406L83.975 198.409C84.5219 198.428 85.0811 198.437 85.6526 198.437L86.2836 198.431L110.132 165.044C109.546 164.822 108.923 164.609 108.265 164.406ZM186.473 165.585L163.032 198.403C163.634 198.426 164.248 198.437 164.875 198.437L165.336 198.435L188.174 166.459C187.666 166.157 187.098 165.865 186.473 165.585ZM100.204 162.665L75.5571 197.174C77.4023 197.696 79.4574 198.073 81.746 198.273L106.328 163.861C104.482 163.388 102.425 162.985 100.204 162.665ZM178.818 163.282L154.595 197.19C156.484 197.695 158.548 198.062 160.804 198.262L184.666 164.862C182.98 164.258 181.01 163.726 178.818 163.282Z" fill="#F1F1F1"/>
<path fill-rule="evenodd" clip-rule="evenodd" d="M94.2327 36.6231C100.392 45.8652 105.986 60.9594 109.715 81.35C110.887 87.7741 111.798 94.3098 112.445 100.739C113.038 106.626 113.405 112.426 113.554 117.972C115.239 117.63 116.958 117.353 118.702 117.144C121.161 116.851 123.672 116.695 126.23 116.684C128.392 116.672 130.529 116.784 132.633 117.007C133.947 117.146 135.249 117.33 136.537 117.558C136.642 112.08 136.96 106.358 137.49 100.552C138.076 94.1563 138.925 87.6579 140.027 81.2663L141.896 71.7267C142.047 71.0501 142.508 70.4851 143.14 70.2038C143.14 70.2038 143.482 70.0494 144.103 69.7907C144.652 69.0075 145.487 68.235 146.595 67.5137C150.299 65.098 157.22 62.9519 164.342 61.7011C171.373 60.4665 178.59 60.1224 183.089 61.1314C185.493 61.6685 187.195 62.6637 188.065 63.9285C189.185 65.6234 190.287 67.337 191.366 69.0622C192.447 70.7897 193.503 72.5311 194.535 74.2819C205.095 92.2335 210.738 107.397 212.115 118.472C213.414 128.923 210.815 135.961 205.639 138.988C200.436 141.992 193.005 140.764 184.568 134.428C181.821 132.367 178.943 129.766 175.983 126.622C174.531 130.768 173.006 134.705 171.438 138.353C173.796 141.45 175.811 144.803 177.432 148.365C179.139 152.113 180.406 156.091 181.171 160.25L181.184 160.266L176.422 159.738C175.704 156.439 174.638 153.272 173.261 150.269C171.596 146.63 169.476 143.236 166.976 140.139C166.437 139.469 166.316 138.551 166.662 137.762C168.68 133.164 170.625 128.064 172.439 122.637C171.931 122.038 171.422 121.42 170.91 120.787C165.77 114.424 160.48 106.474 155.186 96.9999C152.996 93.0403 150.901 88.9971 148.946 84.9236C147.675 82.2751 146.463 79.6161 145.31 76.9655L144.289 82.0173C143.159 88.2903 142.282 94.6702 141.659 100.95C141.01 107.497 140.634 113.935 140.541 120.029C140.534 120.639 140.252 121.213 139.773 121.589C139.294 121.968 138.674 122.108 138.078 121.975C136.153 121.531 134.191 121.192 132.196 120.962C130.236 120.736 128.246 120.613 126.23 120.604C123.824 120.592 121.457 120.718 119.141 120.971C116.755 121.234 114.421 121.634 112.149 122.161C111.589 122.294 110.999 122.166 110.545 121.813C110.092 121.457 109.824 120.915 109.82 120.341C109.792 114.196 109.48 107.693 108.892 101.076C108.327 94.7306 107.506 88.2763 106.425 81.9312C103.677 65.7536 99.7082 52.9566 95.1627 43.8401C92.3262 38.153 89.2874 33.9192 86.1625 31.2407C83.2329 28.7297 80.2686 27.6113 77.3809 28.0996C74.4955 28.6181 72.0797 30.6757 70.1685 34.0354C68.1341 37.6183 66.7019 42.6403 65.9602 48.9598C64.7721 59.0877 65.3836 72.4893 68.2876 88.6553C69.8221 97.1952 71.8635 105.758 74.2327 113.856C76.8321 122.736 79.8291 131.052 82.9888 138.16C83.2353 138.718 83.147 139.367 82.761 139.839C80.2011 142.989 78.0505 146.442 76.3695 150.134C74.714 153.775 73.5189 157.651 72.8423 161.703C72.7912 162.01 72.6563 162.296 72.4541 162.531C69.4408 166.035 67.0692 169.871 65.4464 173.963C63.8142 178.083 62.9493 182.464 62.9631 187.019C62.9935 197.814 68.8037 207.776 78.3783 215.435C89.9733 224.71 107.065 230.595 126.421 230.544C141.34 230.506 155.186 226.363 165.886 219.609C177.504 212.273 185.421 201.856 186.662 190.274L191.136 183.626C191.231 184.746 191.278 185.878 191.276 187.019C191.252 198.718 185.244 209.618 175.298 218.03C163.359 228.128 145.73 234.647 126.421 234.598C106.07 234.545 88.1504 228.193 76.0137 218.374C65.551 209.908 59.3571 198.869 59.3919 187.019C59.406 182.006 60.3871 177.191 62.2122 172.668C63.9421 168.379 66.4322 164.347 69.5803 160.66C70.3429 156.491 71.6193 152.501 73.3538 148.751C75.0372 145.114 77.1483 141.699 79.6338 138.56C76.6113 131.517 73.7561 123.375 71.2799 114.71C68.9316 106.498 66.9205 97.8159 65.4232 89.1598C61.8937 68.7576 61.9449 52.6776 64.5327 41.8894C66.8647 32.1661 71.3427 26.6441 76.953 25.6746C82.561 24.6446 88.6805 28.2902 94.2327 36.6231ZM164.821 64.6004C158.088 65.642 151.508 67.4695 147.971 69.6737C146.818 70.3898 145.958 71.0384 145.811 71.801C147.625 75.7025 149.594 79.6341 151.671 83.5472C153.758 87.4858 155.958 91.4035 158.26 95.2259C161.187 100.115 164.119 104.561 166.986 108.593C172.331 116.112 177.511 122.122 182.359 126.6C186.914 130.806 191.131 133.642 194.898 135.026C198.176 136.23 201.041 136.321 203.338 135.003C205.646 133.684 207.039 131.166 207.655 127.718C208.362 123.756 208.034 118.669 206.667 112.606C204.435 102.706 199.455 90.32 191.399 76.0931C190.413 74.3516 189.404 72.6172 188.371 70.8943C187.341 69.1738 186.288 67.4626 185.235 65.7955C184.53 64.7283 182.67 64.2796 180.273 63.968C176.1 63.4263 170.406 63.7355 164.821 64.6004Z" fill="#F1F1F1"/>
<path fill-rule="evenodd" clip-rule="evenodd" d="M124.5 196.539C124.5 196.539 124.296 196.851 124.096 197.469C124.04 197.641 123.998 197.822 123.973 198.027C123.956 198.148 123.949 198.273 123.956 198.399C123.975 198.776 124.049 199.152 124.117 199.515C124.291 200.457 124.5 201.189 124.5 201.189C124.5 201.529 124.777 201.805 125.117 201.805C125.456 201.805 125.733 201.529 125.733 201.189C125.733 201.189 125.94 200.457 126.114 199.515C126.181 199.152 126.256 198.776 126.274 198.399C126.281 198.273 126.277 198.148 126.26 198.027C126.233 197.822 126.193 197.641 126.137 197.469C125.935 196.851 125.733 196.539 125.733 196.539C125.733 196.2 125.456 195.923 125.117 195.923C124.777 195.923 124.5 196.2 124.5 196.539Z" fill="#F1F1F1"/>
<path fill-rule="evenodd" clip-rule="evenodd" d="M140.875 200.853C140.875 200.853 140.117 201.691 138.86 202.567C138.423 202.872 137.925 203.162 137.374 203.439C136.79 203.734 136.142 203.976 135.433 204.15C134.809 204.306 134.14 204.415 133.414 204.404C132.189 204.385 130.824 204.09 129.306 203.325C128.137 202.734 126.881 201.911 125.546 200.749C125.305 200.512 124.914 200.514 124.677 200.758C124.437 201 124.442 201.391 124.684 201.628C126.646 203.778 128.509 205.094 130.229 205.841C131.308 206.31 132.338 206.543 133.305 206.622C134.27 206.699 135.177 206.617 136.002 206.403C136.918 206.166 137.741 205.778 138.45 205.32C139.078 204.913 139.622 204.462 140.073 204.002C141.324 202.725 141.908 201.523 141.908 201.523C142.094 201.239 142.012 200.856 141.726 200.672C141.44 200.486 141.059 200.568 140.875 200.853Z" fill="#F1F1F1"/>
<path fill-rule="evenodd" clip-rule="evenodd" d="M108.325 201.523C108.325 201.523 108.909 202.725 110.159 204.002C110.608 204.462 111.152 204.913 111.78 205.32C112.491 205.778 113.312 206.166 114.228 206.403C115.056 206.617 115.963 206.699 116.928 206.622C117.893 206.543 118.923 206.31 120.001 205.841C121.724 205.094 123.586 203.778 125.547 201.628C125.791 201.391 125.793 201 125.556 200.758C125.319 200.514 124.928 200.512 124.684 200.749C123.352 201.911 122.096 202.734 120.927 203.325C119.408 204.09 118.041 204.385 116.818 204.404C116.091 204.415 115.423 204.306 114.8 204.15C114.091 203.976 113.44 203.734 112.859 203.439C112.308 203.162 111.808 202.872 111.373 202.567C110.113 201.691 109.357 200.853 109.357 200.853C109.171 200.568 108.79 200.486 108.506 200.672C108.22 200.856 108.139 201.239 108.325 201.523Z" fill="#F1F1F1"/>
</g>
<defs>
<clipPath id="clip0_47_32">
<rect width="165.078" height="211.579" fill="white" transform="translate(47.3749 23.1875)"/>
</clipPath>
</defs>
</svg>
